{
	"asset":{
		"generator":"Khronos glTF Blender I/O v5.0.21",
		"version":"2.0"
	},
	"scene":0,
	"scenes":[
		{
			"name":"Scene",
			"nodes":[
				3
			]
		}
	],
	"nodes":[
		{
			"mesh":0,
			"name":"Cube",
			"scale":[
				0.31234049797058105,
				0.31234049797058105,
				0.31234049797058105
			],
			"translation":[
				-0.3591079115867615,
				-0.6749205589294434,
				0.2914951741695404
			]
		},
		{
			"mesh":1,
			"name":"Sphere",
			"scale":[
				0.41687434911727905,
				0.41687434911727905,
				0.41687434911727905
			],
			"translation":[
				0.424632728099823,
				-0.6353605389595032,
				-0.39339226484298706
			]
		},
		{
			"mesh":2,
			"name":"Suzanne",
			"rotation":[
				0,
				0.3807591199874878,
				0,
				0.9246742725372314
			],
			"scale":[
				0.38530898094177246,
				0.38530898094177246,
				0.38530898094177246
			],
			"translation":[
				-0.2917215824127197,
				0.2891380786895752,
				-0.24155321717262268
			]
		},
		{
			"children":[
				0,
				1,
				2
			],
			"mesh":3,
			"name":"Box",
			"translation":[
				0,
				0.9990744590759277,
				0
			]
		}
	],
	"meshes":[
		{
			"name":"Cube.002",
			"primitives":[
				{
					"attributes":{
						"POSITION":0,
						"NORMAL":1,
						"TEXCOORD_0":2
					},
					"indices":3
				}
			]
		},
		{
			"name":"Sphere",
			"primitives":[
				{
					"attributes":{
						"POSITION":4,
						"NORMAL":5,
						"TEXCOORD_0":6
					},
					"indices":7
				}
			]
		},
		{
			"name":"Suzanne",
			"primitives":[
				{
					"attributes":{
						"POSITION":8,
						"NORMAL":9,
						"TEXCOORD_0":10
					},
					"indices":11
				}
			]
		},
		{
			"name":"Cube.001",
			"primitives":[
				{
					"attributes":{
						"POSITION":12,
						"NORMAL":13,
						"TEXCOORD_0":14
					},
					"indices":15
				}
			]
		}
	],
	"accessors":[
		{
			"bufferView":0,
			"componentType":5126,
			"count":24,
			"max":[
				1,
				1,
				1
			],
			"min":[
				-1,
				-1,
				-1
			],
			"type":"VEC3"
		},
		{
			"bufferView":1,
			"componentType":5126,
			"count":24,
			"type":"VEC3"
		},
		{
			"bufferView":2,
			"componentType":5126,
			"count":24,
			"type":"VEC2"
		},
		{
			"bufferView":3,
			"componentType":5123,
			"count":36,
			"type":"SCALAR"
		},
		{
			"bufferView":4,
			"componentType":5126,
			"count":559,
			"max":[
				0.9999997019767761,
				1,
				0.9999993443489075
			],
			"min":[
				-0.9999990463256836,
				-1,
				-1
			],
			"type":"VEC3"
		},
		{
			"bufferView":5,
			"componentType":5126,
			"count":559,
			"type":"VEC3"
		},
		{
			"bufferView":6,
			"componentType":5126,
			"count":559,
			"type":"VEC2"
		},
		{
			"bufferView":7,
			"componentType":5123,
			"count":2880,
			"type":"SCALAR"
		},
		{
			"bufferView":8,
			"componentType":5126,
			"count":1970,
			"max":[
				1.3671875,
				0.984375,
				0.8515625
			],
			"min":[
				-1.3671875,
				-0.984375,
				-0.8515625
			],
			"type":"VEC3"
		},
		{
			"bufferView":9,
			"componentType":5126,
			"count":1970,
			"type":"VEC3"
		},
		{
			"bufferView":10,
			"componentType":5126,
			"count":1970,
			"type":"VEC2"
		},
		{
			"bufferView":11,
			"componentType":5123,
			"count":2904,
			"type":"SCALAR"
		},
		{
			"bufferView":12,
			"componentType":5126,
			"count":12,
			"max":[
				1,
				1,
				1
			],
			"min":[
				-1,
				-1,
				-1
			],
			"type":"VEC3"
		},
		{
			"bufferView":13,
			"componentType":5126,
			"count":12,
			"type":"VEC3"
		},
		{
			"bufferView":14,
			"componentType":5126,
			"count":12,
			"type":"VEC2"
		},
		{
			"bufferView":15,
			"componentType":5123,
			"count":18,
			"type":"SCALAR"
		}
	],
	"bufferViews":[
		{
			"buffer":0,
			"byteLength":288,
			"byteOffset":0,
			"target":34962
		},
		{
			"buffer":0,
			"byteLength":288,
			"byteOffset":288,
			"target":34962
		},
		{
			"buffer":0,
			"byteLength":192,
			"byteOffset":576,
			"target":34962
		},
		{
			"buffer":0,
			"byteLength":72,
			"byteOffset":768,
			"target":34963
		},
		{
			"buffer":0,
			"byteLength":6708,
			"byteOffset":840,
			"target":34962
		},
		{
			"buffer":0,
			"byteLength":6708,
			"byteOffset":7548,
			"target":34962
		},
		{
			"buffer":0,
			"byteLength":4472,
			"byteOffset":14256,
			"target":34962
		},
		{
			"buffer":0,
			"byteLength":5760,
			"byteOffset":18728,
			"target":34963
		},
		{
			"buffer":0,
			"byteLength":23640,
			"byteOffset":24488,
			"target":34962
		},
		{
			"buffer":0,
			"byteLength":23640,
			"byteOffset":48128,
			"target":34962
		},
		{
			"buffer":0,
			"byteLength":15760,
			"byteOffset":71768,
			"target":34962
		},
		{
			"buffer":0,
			"byteLength":5808,
			"byteOffset":87528,
			"target":34963
		},
		{
			"buffer":0,
			"byteLength":144,
			"byteOffset":93336,
			"target":34962
		},
		{
			"buffer":0,
			"byteLength":144,
			"byteOffset":93480,
			"target":34962
		},
		{
			"buffer":0,
			"byteLength":96,
			"byteOffset":93624,
			"target":34962
		},
		{
			"buffer":0,
			"byteLength":36,
			"byteOffset":93720,
			"target":34963
		}
	],
	"buffers":[
		{
			"byteLength":93756,
			"uri":"LV_SceneTest.bin"
		}
	]
}
